<svg width="51" height="56" viewBox="0 0 51 56" fill="none" xmlns="http://www.w3.org/2000/svg">
  <path d="M25.5 55L8 45M25.5 55V51M25.5 55L29 53M50 14.5L25.5 1L22 2.92857M50 14.5V36M50 14.5L46.5 16.2857M16 14L25 19L35.5 14L26 8L11.5 16L26 24L43 14.5L22 2.92857M22 2.92857L19 4.58163M19 4.58163L1 14.5V17.5M19 4.58163L22 6.5L4 15.5L19 23.5233M25.5 27L22.25 25.2616M25.5 27V30.5M25.5 27L46.5 16.2857M19 23.5233V27.0116M19 23.5233L22.25 25.2616M19 43L8 37.5M19 43V30.5M19 43L22.25 44.5V25.2616M8 37.5V25M8 37.5V41.25M8 25L19 30.5M8 25L5.04651 23.5233M19 30.5V27.0116M19 27.0116L1 17.5M1 17.5V21.5M1 21.5V41L5.04651 43.3123M1 21.5L5.04651 23.5233M5.04651 23.5233V43.3123M5.04651 43.3123L8 45M8 45V41.25M8 41.25L25.5 51M25.5 51V35M25.5 30.5L43 22V26M25.5 30.5V35M43 37L32.5 43.3123V31.5M43 37V26M43 37L46.5 35V16.2857M32.5 31.5L43 26M32.5 31.5L25.5 35M29 53V36M29 53L32.5 51M32.5 51L50 41V36M32.5 51V46.5L50 36M21.5 13.5L25.5 16L30 13.5L26 11L21.5 13.5ZM11.5 30.5V36L16 38.5V32.5L11.5 30.5ZM35.5 32.5L40 30.5V35L35.5 37.5V32.5Z" 
    stroke="black" stroke-width="1.5" stroke-dasharray="500" stroke-dashoffset="500">
    <animate 
      attributeName="stroke-dashoffset" 
      from="2000" 
      to="0" 
      dur="20s" 
      repeatCount="indefinite" />
  </path>
</svg>
